<?xml version="1.0" standalone="no"?>
<!DOCTYPE svg PUBLIC "-//W3C//DTD SVG 20010904//EN"
 "http://www.w3.org/TR/2001/REC-SVG-20010904/DTD/svg10.dtd">
<svg version="1.0" xmlns="http://www.w3.org/2000/svg"
 width="1080.000000pt" height="1080.000000pt" viewBox="0 0 1080.000000 1080.000000"
 preserveAspectRatio="xMidYMid meet">

<g transform="translate(0.000000,1080.000000) scale(0.100000,-0.100000)"
fill="#000000" stroke="none">
<path d="M7 10793 c-4 -3 -7 -2431 -7 -5395 l0 -5388 5395 0 5395 0 0 5395 0
5395 -5388 0 c-2964 0 -5392 -3 -5395 -7z m5588 -2834 c57 -16 257 -112 299
-144 75 -57 94 -133 61 -241 -22 -71 -19 -105 15 -169 17 -31 30 -67 30 -79 0
-29 -46 -74 -61 -59 -7 7 -5 14 6 23 22 18 19 33 -15 88 -19 32 -30 63 -30 86
0 30 -3 37 -17 34 -28 -5 -44 -48 -38 -99 6 -41 4 -48 -29 -84 -20 -21 -36
-43 -36 -47 0 -5 -5 -14 -10 -21 -6 -7 -19 -24 -31 -39 -26 -35 -58 -36 -98
-2 -17 14 -38 23 -46 20 -21 -8 -19 -69 4 -114 37 -71 93 -105 238 -145 103
-28 139 -46 168 -85 18 -25 21 -49 27 -296 4 -148 12 -308 17 -355 13 -119 98
-376 156 -472 25 -41 45 -81 45 -88 0 -27 17 2 35 59 32 104 146 264 219 310
73 44 179 15 279 -78 110 -104 222 -320 264 -512 15 -72 18 -131 18 -395 0
-341 -4 -370 -74 -534 -71 -168 -142 -247 -336 -373 -27 -18 -72 -63 -100 -99
-70 -92 -167 -195 -207 -219 -67 -41 -147 -19 -183 50 -34 66 -109 285 -145
425 -57 219 -78 321 -120 595 -14 95 -29 152 -49 195 -73 155 -228 255 -401
258 -90 2 -138 -19 -213 -91 -97 -94 -210 -284 -276 -467 -36 -100 -39 -130
-13 -123 10 3 129 81 265 174 321 220 327 224 369 230 58 10 73 -14 86 -137
41 -375 15 -698 -75 -939 -46 -124 -79 -187 -152 -297 -107 -160 -252 -298
-392 -373 -31 -16 -61 -30 -67 -30 -5 0 -30 24 -54 54 l-45 54 -99 -99 c-54
-55 -104 -98 -110 -97 -7 2 -51 47 -99 101 l-88 99 -78 -78 -79 -78 -37 13
c-20 8 -67 33 -104 57 -257 165 -442 552 -423 886 15 253 54 380 174 560 56
84 221 286 342 420 77 84 80 89 84 145 3 32 7 68 10 81 7 35 68 96 136 136
109 63 200 161 370 396 123 171 133 193 118 281 -5 35 -10 200 -10 365 l0 301
24 24 c13 13 54 35 92 49 66 24 174 107 174 133 0 6 -15 -3 -32 -20 -48 -46
-108 -73 -185 -85 -95 -15 -115 -23 -142 -64 -30 -44 -49 -31 -28 19 20 46 52
66 124 77 73 11 148 37 164 57 11 12 9 18 -11 34 -14 10 -47 26 -75 35 -159
52 -176 134 -60 284 42 55 136 212 193 325 32 64 122 157 169 176 73 30 135
35 198 18z m-1635 -2969 c0 -5 -15 -27 -34 -47 -52 -58 -129 -178 -181 -283
-71 -141 -86 -203 -86 -352 0 -59 -4 -100 -10 -104 -37 -23 -85 120 -76 223
19 198 148 441 289 543 39 29 98 41 98 20z m3250 -426 c27 -80 10 -184 -47
-281 -67 -117 -281 -294 -404 -336 -47 -16 -99 -12 -99 7 1 6 31 29 67 51 37
22 112 85 168 140 140 138 242 293 266 405 13 59 32 65 49 14z m-2626 -1315
l89 -101 103 103 c90 89 106 101 117 89 8 -8 57 -67 110 -131 l95 -116 -122
-128 c-67 -70 -127 -126 -132 -124 -6 2 -48 47 -94 99 -46 52 -86 95 -90 95
-4 0 -53 -44 -109 -97 -57 -54 -106 -98 -110 -98 -7 0 -109 119 -204 237 -18
23 -18 23 70 106 139 131 178 166 183 167 3 0 45 -45 94 -101z"/>
<path d="M5600 6741 c-44 -14 -90 -41 -131 -78 l-39 -35 -46 42 c-78 72 -143
87 -218 50 -78 -38 -113 -132 -82 -218 9 -24 45 -86 81 -138 76 -108 115 -186
115 -229 -1 -59 -34 -110 -102 -156 -158 -107 -401 -335 -723 -679 -310 -331
-530 -623 -599 -798 -52 -129 -59 -287 -16 -411 76 -226 336 -426 610 -470
503 -81 1059 345 1172 897 17 86 18 96 3 118 -8 13 -22 24 -30 24 -14 0 -147
-88 -425 -281 -63 -44 -152 -98 -196 -120 -76 -38 -84 -40 -110 -28 -19 9 -31
26 -37 49 -5 19 -7 139 -4 265 5 254 20 357 78 522 69 197 244 510 340 609 80
82 195 114 286 79 60 -23 165 -130 245 -250 125 -188 201 -386 262 -681 87
-418 107 -507 121 -534 21 -41 72 -80 105 -80 l28 0 5 288 c5 308 13 374 61
478 14 29 48 77 76 105 l51 51 61 -4 c51 -4 65 -9 84 -31 42 -49 55 -117 61
-324 4 -131 10 -193 17 -193 18 0 130 121 201 217 169 228 136 416 -131 734
-77 91 -122 119 -192 119 -42 0 -58 -6 -94 -33 -132 -101 -218 -292 -218 -485
0 -83 -13 -109 -29 -61 -15 48 -30 171 -31 255 0 179 -48 285 -194 429 -55 56
-151 138 -213 184 -127 94 -148 124 -141 202 4 34 21 75 61 146 129 225 139
321 44 410 -49 46 -108 62 -167 44z"/>
<path d="M5824 6348 c-10 -24 -38 -77 -61 -118 -24 -41 -43 -83 -43 -93 0 -40
32 -76 112 -127 46 -29 99 -66 119 -82 60 -46 65 -34 19 41 -44 71 -90 213
-103 318 -7 50 -15 94 -18 97 -3 4 -14 -13 -25 -36z"/>
<path d="M5178 6155 c-3 -27 -17 -62 -33 -85 -16 -22 -25 -43 -22 -46 10 -11
73 34 85 61 22 47 11 115 -19 115 -3 0 -9 -20 -11 -45z"/>
<path d="M6453 4678 c-53 -51 -93 -111 -93 -142 0 -29 59 -66 104 -66 83 0
147 66 154 158 4 55 2 60 -23 80 -46 36 -79 29 -142 -30z"/>
</g>
</svg>
